<?xml version="1.0" encoding="UTF-8" standalone="no"?>
<!-- Created with Inkscape (http://www.inkscape.org/) -->

<svg
   width="24"
   height="24"
   viewBox="0 0 24 24"
   version="1.1"
   id="svg1"
   inkscape:version="1.3 (0e150ed6c4, 2023-07-21)"
   sodipodi:docname="ic_rating_class_simple.svg"
   xml:space="preserve"
   xmlns:inkscape="http://www.inkscape.org/namespaces/inkscape"
   xmlns:sodipodi="http://sodipodi.sourceforge.net/DTD/sodipodi-0.dtd"
   xmlns="http://www.w3.org/2000/svg"
   xmlns:svg="http://www.w3.org/2000/svg"><sodipodi:namedview
     id="namedview1"
     pagecolor="#ffffff"
     bordercolor="#000000"
     borderopacity="0.25"
     inkscape:showpageshadow="2"
     inkscape:pageopacity="0.0"
     inkscape:pagecheckerboard="true"
     inkscape:deskcolor="#d1d1d1"
     inkscape:document-units="px"
     showgrid="true"
     inkscape:zoom="45.254834"
     inkscape:cx="10.407728"
     inkscape:cy="12.031864"
     inkscape:current-layer="layer1"
     showguides="true"><inkscape:grid
       id="grid4"
       units="px"
       originx="12"
       originy="12"
       spacingx="1"
       spacingy="1"
       empcolor="#0099e5"
       empopacity="0.30196078"
       color="#0099e5"
       opacity="0.14901961"
       empspacing="5"
       dotted="false"
       gridanglex="30"
       gridanglez="30"
       visible="true"
       snapvisiblegridlinesonly="true"
       enabled="true" /></sodipodi:namedview><defs
     id="defs1" /><g
     inkscape:label="图层 1"
     inkscape:groupmode="layer"
     id="layer1"><path
       style="fill:#000000;fill-opacity:1;fill-rule:evenodd;stroke:none;stroke-width:1.5;stroke-linejoin:round;stroke-miterlimit:0"
       d="m 18,2 h 2 v 2 h 2 V 6 H 20 V 8 H 18 V 6 H 16 V 4 h 2 z"
       id="path6" /><path
       id="path7"
       style="fill:#000000;fill-opacity:1;fill-rule:evenodd;stroke:none;stroke-width:1.5;stroke-linejoin:round;stroke-miterlimit:0"
       d="M 12 2 L 2 12 L 12 22 L 22 12 L 12 2 z M 12 6.25 C 13.921148 6.25 15.5 7.8288519 15.5 9.75 C 15.5 11.317272 14.430169 12.604641 13 13.044922 L 13 14.75 L 11 14.75 L 11 12.25 A 1.0001 1.0001 0 0 1 12 11.25 C 12.84027 11.25 13.5 10.59027 13.5 9.75 C 13.5 8.9097298 12.84027 8.25 12 8.25 C 11.15973 8.25 10.5 8.9097298 10.5 9.75 L 8.5 9.75 C 8.5 7.8288519 10.078852 6.25 12 6.25 z M 12 15.949219 A 1.3 1.3 0 0 1 13.300781 17.25 A 1.3 1.3 0 0 1 12 18.550781 A 1.3 1.3 0 0 1 10.699219 17.25 A 1.3 1.3 0 0 1 12 15.949219 z " /></g></svg>
